<svg width="1100" height="1100" viewBox="0 0 1100 1100" fill="none" xmlns="http://www.w3.org/2000/svg">
<path d="M0 270H1100V852H0V270Z" fill="white"/>
<path d="M213 22H911V1083H213V22Z" fill="white"/>
<path d="M110 0C49.2487 0 0 49.2487 0 110V300H446.925L550 37L653.076 300H1100V110C1100 49.2487 1050.75 0 990 0H110Z" fill="#EF2B2D"/>
<path d="M407.733 400H0V700H288.311C290.697 694.972 293.251 690.027 295.969 685.17L407.733 400Z" fill="#002868"/>
<path d="M811.689 700C809.304 694.974 806.75 690.029 804.033 685.173L692.268 400H1100V700H811.689Z" fill="#002868"/>
<path d="M265.02 800C265.007 801.035 265 802.072 265 803.11C265 946.643 392.599 1063 550 1063C707.401 1063 835 946.643 835 803.11C835 802.072 834.993 801.035 834.98 800H1100V990C1100 1050.75 1050.75 1100 990 1100H110C49.2487 1100 0 1050.75 0 990V800H265.02Z" fill="#EF2B2D"/>
<path d="M715.475 715.639L549.834 293L384.193 715.637C371.281 738.716 364 764.853 364 792.54C364 886.13 447.2 962 549.833 962C652.466 962 735.667 886.13 735.667 792.54C735.667 764.854 728.386 738.719 715.475 715.639Z" fill="#002868"/>
</svg>
